<?xml version="1.0" encoding="utf-8"?>
<!-- Generator: Adobe Illustrator 19.0.0, SVG Export Plug-In . SVG Version: 6.00 Build 0)  -->
<svg version="1.1" id="Layer_1" xmlns="http://www.w3.org/2000/svg" xmlns:xlink="http://www.w3.org/1999/xlink" x="0px" y="0px"
	 viewBox="-826 735 90.5 74.3" style="enable-background:new -826 735 90.5 74.3;" xml:space="preserve">
<style type="text/css">
	.st0{fill:#FFFFFF;}
</style>
<g>
	<path class="st0" d="M-792.1,787c0-3.8-1.5-7-4.3-9.6c-2.4-2.1-5.2-3.7-8-5.5c-2.9-1.8-4.3-3.4-4.4-4.9c0-1.7,1.5-2.4,4.7-1.6
		c2.9,0.7,6.4,2.7,10.5,5.9l-0.1-7c-3.7-2.8-7.4-4.6-10.9-5.4c-7.4-1.8-12.1,1.3-12,7c0.1,6.2,4.1,10,12.2,14.9
		c2.8,1.7,4.3,2.7,4.3,4.8c0,2-1.6,2.7-4.7,1.9c-3.6-0.9-6.9-3.3-11-6.9l0.1,7.6c3.4,3,7.2,5,11.1,5.9
		C-796.6,796.1-792,793.2-792.1,787 M-823.7,744.7l36.5,11.5c1.3,0.4,2.4,2.1,2.4,3.8c-0.3,16.3-0.7,30.5-1,46.8
		c0,1.7-1.6,2.8-2.7,2.3l-31.3-12.6c-1.2-0.5-2.3-2.1-2.4-3.9l-3.8-45.4C-826.1,745.5-825,744.3-823.7,744.7"/>
	<path class="st0" d="M-764.2,769.3c0.1-3.2-1.3-4.9-4-5.1c2.4-2.2,3.6-4.4,3.6-6.9c0.1-3.8-2.7-5.4-7.4-3.8
		c-2.4,0.8-4.3,1.9-5.9,3.4l-0.1,4.2c1.6-1.4,3.1-2.4,4.7-2.9c2.3-0.8,3.5-0.1,3.5,1.5c0,1.9-1.4,3.6-3.7,4.5l-0.1,4.5
		c2.5-0.8,3.9,0.1,3.8,2.1c0,2.1-1.5,3.8-4.1,4.7c-1.8,0.6-3.4,0.5-5.2-0.2l-0.1,4.9c1.5,0.5,3.7,0.3,6.4-0.6
		C-767.5,777.8-764.3,773.8-764.2,769.3"/>
	<path class="st0" d="M-752.6,780.8l15.4,10.2c2.8,1.9,2,6.5-1.3,7.3l-40.9,9.8c-1,0.2-2,0.1-2.8-0.4c0.9-0.5,1.9-0.9,2.8-1.4
		c5.8-2.8,12.7-6.2,18.8-9.2c1.6-0.9,2.3-2,2.5-3.6l6.1-44.2c0.2-1.7-0.7-3.4-2.1-3.8l-33.7-9.6c-1.1-0.4-2.8-0.3-3.3-0.1
		c0.7-1.1,2.9-0.9,4-0.6l36,8.8c1.4,0.3,2.5,2.2,2.3,3.9L-752.6,780.8z"/>
</g>
</svg>
